<?xml version="1.0" standalone="no"?>
<!DOCTYPE svg PUBLIC "-//W3C//DTD SVG 20010904//EN"
 "http://www.w3.org/TR/2001/REC-SVG-20010904/DTD/svg10.dtd">
<svg version="1.0" xmlns="http://www.w3.org/2000/svg"
 width="500.000000pt" height="500.000000pt" viewBox="0 0 500.000000 500.000000"
 preserveAspectRatio="xMidYMid meet">

<g transform="translate(0.000000,500.000000) scale(0.100000,-0.100000)"
fill="#280031" stroke="none">
<path d="M2040 4081 c-36 -10 -132 -37 -215 -61 -82 -23 -181 -51 -218 -61
-93 -25 -131 -56 -232 -189 -481 -634 -470 -618 -538 -742 -37 -66 -44 -92
-29 -102 4 -3 46 9 93 25 327 118 382 139 402 157 16 14 76 113 225 367 19 33
43 71 52 85 9 14 40 67 69 118 50 86 81 115 81 74 0 -10 -23 -83 -50 -162
-115 -329 -144 -420 -134 -429 5 -6 111 8 269 35 359 61 373 63 446 58 207
-14 757 -44 798 -44 60 0 94 24 94 66 0 26 -35 160 -123 469 -40 141 -45 168
-30 163 12 -4 57 -82 177 -308 31 -58 69 -130 86 -160 16 -30 46 -84 65 -120
67 -125 60 -120 317 -190 55 -15 181 -60 280 -100 99 -40 196 -77 216 -83 77
-22 89 16 34 107 -19 32 -35 60 -35 62 0 2 -26 37 -58 77 -32 39 -73 94 -92
120 -19 27 -47 63 -61 80 -26 32 -146 189 -297 390 -99 131 -122 151 -192 170
-30 8 -127 36 -215 62 -319 94 -246 85 -707 84 -362 -1 -421 -3 -478 -18z"/>
<path d="M2010 3054 c-74 -13 -197 -35 -273 -48 -76 -13 -144 -30 -152 -36
-21 -17 -19 -54 5 -98 19 -34 131 -268 220 -457 21 -44 70 -147 110 -230 40
-82 102 -211 137 -285 36 -74 78 -163 95 -197 29 -60 30 -83 4 -83 -7 0 -34
35 -61 78 -26 42 -58 93 -70 112 -46 74 -90 145 -100 162 -13 23 -144 234
-201 323 -24 39 -53 86 -64 105 -11 19 -46 77 -78 127 -250 405 -234 383 -286
383 -23 0 -353 -106 -409 -131 -18 -8 -27 -20 -27 -36 0 -24 21 -51 450 -553
135 -158 259 -304 275 -325 17 -20 35 -42 41 -49 20 -21 369 -432 498 -586
294 -350 305 -360 379 -360 66 0 77 9 232 189 11 12 27 30 35 40 8 9 25 28 36
43 12 15 46 55 76 90 121 138 593 688 801 933 121 143 227 267 236 276 9 9 34
38 56 64 22 27 45 53 50 59 115 124 137 171 92 201 -47 31 -438 161 -569 190
-121 26 -126 21 -225 -207 -18 -43 -48 -113 -67 -155 -18 -43 -54 -127 -80
-188 -26 -60 -63 -144 -81 -185 -18 -41 -99 -228 -180 -415 -141 -326 -235
-542 -276 -632 -19 -42 -39 -57 -39 -29 0 7 34 121 75 252 42 132 91 289 110
349 19 61 75 241 125 400 50 160 107 342 127 405 19 63 48 153 63 200 41 129
60 195 60 213 0 9 -10 28 -23 42 -21 25 -29 27 -157 35 -129 9 -460 25 -715
35 -99 4 -143 0 -255 -21z"/>
</g>
</svg>
