<svg xmlns="http://www.w3.org/2000/svg" viewBox="0 0 52 52"><defs><style>.cls-1{fill:none;}.cls-2{fill:#eae8f7;}</style></defs><g id="Layer_2" data-name="Layer 2"><g id="Layer_1-2" data-name="Layer 1"><rect class="cls-1" width="52" height="52"/><path class="cls-2" d="M34.41,7.3a2.84,2.84,0,0,0-2.84-2.84H5.33A2.84,2.84,0,0,0,2.49,7.3V27.39a2.84,2.84,0,0,0,2.84,2.84H9.4a1.56,1.56,0,0,0,0-3.11H5.6V7.56H31.3V16l3.11-2.92Z"/><circle class="cls-2" cx="24.51" cy="16.4" r="1.55"/><circle class="cls-2" cx="18.01" cy="16.4" r="1.55"/><circle class="cls-2" cx="11.51" cy="16.4" r="1.55"/><path class="cls-2" d="M13.32,44.44H4.2a1.55,1.55,0,1,0,0,3.1h9.12a1.55,1.55,0,0,0,0-3.1Z"/><path class="cls-2" d="M48,44.44H20.7a1.55,1.55,0,1,0,0,3.1H48a1.55,1.55,0,0,0,0-3.1Z"/><path class="cls-2" d="M45.86,26h0L47,25l1.17-1h0l1.88-1.65.12-.2c.94-1.54-.43-4.39-4.2-8.69s-6.44-4.92-6.92-5l-.7-.09-2.19,1.92-2.3,2L14.74,29l0,12.14,12,1.55ZM39.19,11.73a14.63,14.63,0,0,1,4.44,3.73c2.61,3,3.39,4.52,3.62,5.17l-1.1,1-7.91-9Zm-3.32,2.9,7.92,9L33.7,32.49l-5,4.35-2.55,2.23-.44.39-7.88-1,0-8Z"/></g></g></svg>