<svg xmlns="http://www.w3.org/2000/svg" viewBox="0 0 52 52"><defs><style>.cls-1{fill:#eae8f7;fill-rule:evenodd;}.cls-2{fill:none;}</style></defs><g id="Layer_2" data-name="Layer 2"><g id="Layer_1-2" data-name="Layer 1"><path class="cls-1" d="M26,5C14.19,5,5,13.68,5,25.37a19.88,19.88,0,0,0,6.59,15,1.68,1.68,0,0,1,.56,1.2l.11,3.73a1.68,1.68,0,0,0,2.36,1.48L18.81,45a1.66,1.66,0,0,1,1.12-.09,22.7,22.7,0,0,0,6.07.81c11.81,0,21-8.65,21-20.34S37.81,5,26,5ZM38.59,20.68l-6.16,9.77a3.15,3.15,0,0,1-4.55.84L23,27.62a1.26,1.26,0,0,0-1.52,0l-6.62,5a1,1,0,0,1-1.44-1.32l6.16-9.77a3.15,3.15,0,0,1,4.55-.84L29,24.38a1.26,1.26,0,0,0,1.52,0l6.62-5A1,1,0,0,1,38.59,20.68Z"/><rect class="cls-2" width="52" height="52"/></g></g></svg>