<svg id="wave" style="transform:rotate(180deg); transition: 0.3s" viewBox="0 0 1440 100" version="1.1" xmlns="http://www.w3.org/2000/svg"><defs><linearGradient id="sw-gradient-0" x1="0" x2="0" y1="1" y2="0"><stop stop-color="rgba(40, 0, 49, 1)" offset="0%"></stop><stop stop-color="rgba(40, 0, 49, 1)" offset="100%"></stop></linearGradient></defs><path style="transform:translate(0, 0px); opacity:1" fill="url(#sw-gradient-0)" d="M0,60L10,51.7C20,43,40,27,60,25C80,23,100,37,120,41.7C140,47,160,43,180,45C200,47,220,53,240,56.7C260,60,280,60,300,53.3C320,47,340,33,360,35C380,37,400,53,420,63.3C440,73,460,77,480,73.3C500,70,520,60,540,56.7C560,53,580,57,600,60C620,63,640,67,660,70C680,73,700,77,720,71.7C740,67,760,53,780,40C800,27,820,13,840,15C860,17,880,33,900,33.3C920,33,940,17,960,21.7C980,27,1000,53,1020,65C1040,77,1060,73,1080,60C1100,47,1120,23,1140,20C1160,17,1180,33,1200,45C1220,57,1240,63,1260,66.7C1280,70,1300,70,1320,60C1340,50,1360,30,1380,25C1400,20,1420,30,1430,35L1440,40L1440,100L1430,100C1420,100,1400,100,1380,100C1360,100,1340,100,1320,100C1300,100,1280,100,1260,100C1240,100,1220,100,1200,100C1180,100,1160,100,1140,100C1120,100,1100,100,1080,100C1060,100,1040,100,1020,100C1000,100,980,100,960,100C940,100,920,100,900,100C880,100,860,100,840,100C820,100,800,100,780,100C760,100,740,100,720,100C700,100,680,100,660,100C640,100,620,100,600,100C580,100,560,100,540,100C520,100,500,100,480,100C460,100,440,100,420,100C400,100,380,100,360,100C340,100,320,100,300,100C280,100,260,100,240,100C220,100,200,100,180,100C160,100,140,100,120,100C100,100,80,100,60,100C40,100,20,100,10,100L0,100Z"></path></svg>