<svg id="wave" style="transform:rotate(0deg); transition: 0.3s" viewBox="0 0 1440 120" version="1.1" xmlns="http://www.w3.org/2000/svg"><defs><linearGradient id="sw-gradient-0" x1="0" x2="0" y1="1" y2="0"><stop stop-color="rgba(255, 127, 152, 1)" offset="0%"></stop><stop stop-color="rgba(255, 127, 152, 1)" offset="100%"></stop></linearGradient></defs><path style="transform:translate(0, 0px); opacity:1" fill="url(#sw-gradient-0)" d="M0,60L10,56C20,52,40,44,60,44C80,44,100,52,120,48C140,44,160,28,180,20C200,12,220,12,240,22C260,32,280,52,300,58C320,64,340,56,360,44C380,32,400,16,420,26C440,36,460,72,480,82C500,92,520,76,540,60C560,44,580,28,600,18C620,8,640,4,660,8C680,12,700,24,720,36C740,48,760,60,780,68C800,76,820,80,840,78C860,76,880,68,900,62C920,56,940,52,960,46C980,40,1000,32,1020,40C1040,48,1060,72,1080,68C1100,64,1120,32,1140,28C1160,24,1180,48,1200,66C1220,84,1240,96,1260,84C1280,72,1300,36,1320,18C1340,0,1360,0,1380,6C1400,12,1420,24,1430,30L1440,36L1440,120L1430,120C1420,120,1400,120,1380,120C1360,120,1340,120,1320,120C1300,120,1280,120,1260,120C1240,120,1220,120,1200,120C1180,120,1160,120,1140,120C1120,120,1100,120,1080,120C1060,120,1040,120,1020,120C1000,120,980,120,960,120C940,120,920,120,900,120C880,120,860,120,840,120C820,120,800,120,780,120C760,120,740,120,720,120C700,120,680,120,660,120C640,120,620,120,600,120C580,120,560,120,540,120C520,120,500,120,480,120C460,120,440,120,420,120C400,120,380,120,360,120C340,120,320,120,300,120C280,120,260,120,240,120C220,120,200,120,180,120C160,120,140,120,120,120C100,120,80,120,60,120C40,120,20,120,10,120L0,120Z"></path></svg>