<svg id="wave" style="transform:rotate(180deg); transition: 0.3s" viewBox="0 0 1440 100" version="1.1" xmlns="http://www.w3.org/2000/svg"><defs><linearGradient id="sw-gradient-0" x1="0" x2="0" y1="1" y2="0"><stop stop-color="rgba(60, 31, 66, 1)" offset="0%"></stop><stop stop-color="rgba(60, 31, 66, 1)" offset="100%"></stop></linearGradient></defs><path style="transform:translate(0, 0px); opacity:1" fill="url(#sw-gradient-0)" d="M0,60L10,50C20,40,40,20,60,10C80,0,100,0,120,10C140,20,160,40,180,40C200,40,220,20,240,23.3C260,27,280,53,300,55C320,57,340,33,360,30C380,27,400,43,420,55C440,67,460,73,480,68.3C500,63,520,47,540,46.7C560,47,580,63,600,71.7C620,80,640,80,660,76.7C680,73,700,67,720,68.3C740,70,760,80,780,71.7C800,63,820,37,840,21.7C860,7,880,3,900,5C920,7,940,13,960,21.7C980,30,1000,40,1020,46.7C1040,53,1060,57,1080,51.7C1100,47,1120,33,1140,35C1160,37,1180,53,1200,58.3C1220,63,1240,57,1260,45C1280,33,1300,17,1320,18.3C1340,20,1360,40,1380,48.3C1400,57,1420,53,1430,51.7L1440,50L1440,100L1430,100C1420,100,1400,100,1380,100C1360,100,1340,100,1320,100C1300,100,1280,100,1260,100C1240,100,1220,100,1200,100C1180,100,1160,100,1140,100C1120,100,1100,100,1080,100C1060,100,1040,100,1020,100C1000,100,980,100,960,100C940,100,920,100,900,100C880,100,860,100,840,100C820,100,800,100,780,100C760,100,740,100,720,100C700,100,680,100,660,100C640,100,620,100,600,100C580,100,560,100,540,100C520,100,500,100,480,100C460,100,440,100,420,100C400,100,380,100,360,100C340,100,320,100,300,100C280,100,260,100,240,100C220,100,200,100,180,100C160,100,140,100,120,100C100,100,80,100,60,100C40,100,20,100,10,100L0,100Z"></path></svg>