<svg id="wave" style="transform:rotate(180deg); transition: 0.3s" viewBox="0 0 1440 120" version="1.1" xmlns="http://www.w3.org/2000/svg"><defs><linearGradient id="sw-gradient-0" x1="0" x2="0" y1="1" y2="0"><stop stop-color="rgba(232, 247, 84, 1)" offset="0%"></stop><stop stop-color="rgba(232, 247, 84, 1)" offset="100%"></stop></linearGradient></defs><path style="transform:translate(0, 0px); opacity:1" fill="url(#sw-gradient-0)" d="M0,0L10,4C20,8,40,16,60,34C80,52,100,80,120,88C140,96,160,84,180,68C200,52,220,32,240,30C260,28,280,44,300,52C320,60,340,60,360,50C380,40,400,20,420,16C440,12,460,24,480,28C500,32,520,28,540,34C560,40,580,56,600,68C620,80,640,88,660,76C680,64,700,32,720,28C740,24,760,48,780,48C800,48,820,24,840,14C860,4,880,8,900,16C920,24,940,36,960,52C980,68,1000,88,1020,80C1040,72,1060,36,1080,34C1100,32,1120,64,1140,82C1160,100,1180,104,1200,90C1220,76,1240,44,1260,38C1280,32,1300,52,1320,52C1340,52,1360,32,1380,30C1400,28,1420,44,1430,52L1440,60L1440,120L1430,120C1420,120,1400,120,1380,120C1360,120,1340,120,1320,120C1300,120,1280,120,1260,120C1240,120,1220,120,1200,120C1180,120,1160,120,1140,120C1120,120,1100,120,1080,120C1060,120,1040,120,1020,120C1000,120,980,120,960,120C940,120,920,120,900,120C880,120,860,120,840,120C820,120,800,120,780,120C760,120,740,120,720,120C700,120,680,120,660,120C640,120,620,120,600,120C580,120,560,120,540,120C520,120,500,120,480,120C460,120,440,120,420,120C400,120,380,120,360,120C340,120,320,120,300,120C280,120,260,120,240,120C220,120,200,120,180,120C160,120,140,120,120,120C100,120,80,120,60,120C40,120,20,120,10,120L0,120Z"></path></svg>